<svg xmlns="http://www.w3.org/2000/svg" xmlns:xlink="http://www.w3.org/1999/xlink"
  viewBox="0,0,256,256" width="144px" height="144px" fill-rule="nonzero">
  <g fill="#1850e1" fill-rule="nonzero" stroke="none" stroke-width="1" stroke-linecap="butt"
    stroke-linejoin="miter" stroke-miterlimit="10" stroke-dasharray="" stroke-dashoffset="0"
    font-family="none" font-weight="none" font-size="none" text-anchor="none"
    style="mix-blend-mode: normal">
    <g transform="scale(5.33333,5.33333)">
      <path
        d="M26.55859,0.40039c2.103,5.069 -7.54636,8.20283 -8.44336,12.42383c-0.82,3.884 5.72937,8.39453 5.73438,8.39453c-0.994,-1.603 -1.71389,-2.93159 -2.71289,-5.43359c-1.69,-4.226 10.27287,-8.04577 5.42188,-15.38477zM32.95703,7.42578c0,0 -8.44986,0.55831 -8.88086,6.19531c-0.191,2.506 2.22102,3.84283 2.29102,5.67383c0.056,1.49 -1.44141,2.73047 -1.44141,2.73047c0,0 2.71645,-0.53364 3.56445,-2.80664c0.941,-2.524 -1.82602,-4.25244 -1.54102,-6.27344c0.266,-1.93 6.00781,-5.51953 6.00781,-5.51953zM18.04492,22.02539c0,0 -9.42578,-0.16397 -9.42578,2.70703c0,2.993 12.74266,3.20723 21.84766,1.36523c0,0 2.43013,-1.73281 3.07813,-2.38281c-5.964,1.266 -19.58203,1.43689 -19.58203,0.33789c0,-1.013 4.08203,-2.02734 4.08203,-2.02734zM37.57617,22.12305c-1.096,-0.05232 -2.31788,0.33028 -3.42187,1.16016c2.17,-0.487 3.99805,0.89433 3.99805,2.48633c0,3.589 -4.97266,6.97852 -4.97266,6.97852c0,0 7.69922,-0.91659 7.69922,-6.80859c0.00062,-2.435 -1.47606,-3.72921 -3.30273,-3.81641zM16.00586,27.57813c-1.5,0 -3.72461,1.20623 -3.72461,2.36523c0,2.325 11.24827,4.11984 19.57227,0.71484l-2.88281,-1.6582c-5.646,1.877 -16.04484,1.09913 -12.96484,-1.42187zM17.38867,32.78711c-2.049,0 -3.375,1.32025 -3.375,2.28125c0,2.994 12.2205,3.29681 17.0625,0.25781l-3.07617,-2.04297c-3.617,1.59 -12.70433,1.80791 -10.61133,-0.49609zM10.76172,35.1543c-3.33324,-0.06727 -5.5,1.49777 -5.5,2.79102c0,6.891 34.16016,6.55858 34.16016,-0.48242c0,-1.172 -1.32192,-1.72428 -1.79492,-1.98828c2.79,6.728 -27.94531,6.20638 -27.94531,2.23438c0,-0.903 2.26252,-1.78714 4.35352,-1.36914l-1.77734,-1.05078c-0.52088,-0.08175 -1.01992,-0.12516 -1.49609,-0.13477zM42.82617,39.93164c-5.192,5.128 -18.35575,6.99612 -31.59375,3.82813c13.238,5.639 31.53075,2.46288 31.59375,-3.82812z"></path>
    </g>
  </g>
</svg>